<svg width="31" height="48" viewBox="0 0 31 48" fill="none" xmlns="http://www.w3.org/2000/svg">
<path d="M26.9078 47.4327C27.5919 47.448 28.2636 47.2472 28.8296 46.8579C29.3956 46.4687 29.8278 45.9103 30.0661 45.2608C30.3044 44.6114 30.337 43.903 30.1592 43.2339C29.9815 42.5648 29.6023 41.9687 29.0744 41.528L8.93226 24.0541L29.0744 6.58628C29.4396 6.31449 29.7454 5.96943 29.9727 5.57242C30.2001 5.1754 30.344 4.735 30.3955 4.27905C30.447 3.8231 30.405 3.36138 30.2721 2.92263C30.1392 2.48387 29.9183 2.07751 29.6232 1.72922C29.328 1.38094 28.9651 1.09842 28.557 0.89876C28.149 0.699099 27.7046 0.586958 27.2518 0.569266C26.7989 0.551573 26.3473 0.628493 25.9253 0.795721C25.5033 0.962946 25.1199 1.21661 24.7991 1.54083L1.73817 21.5215C1.37602 21.8345 1.08522 22.2229 0.885816 22.6607C0.686411 23.0985 0.583149 23.575 0.583149 24.0571C0.583149 24.5392 0.686411 25.0158 0.885817 25.4535C1.08522 25.8913 1.37602 26.2802 1.73817 26.5931L24.7991 46.593C25.3817 47.117 26.1289 47.4142 26.9078 47.4327Z" fill="black"/>
</svg>
