<svg width="31" height="48" viewBox="0 0 31 48" fill="none" xmlns="http://www.w3.org/2000/svg">
<path d="M4.09212 0.567274C3.4081 0.552039 2.73639 0.752838 2.17037 1.14206C1.60435 1.53129 1.17215 2.0897 0.933855 2.73916C0.695562 3.38863 0.663017 4.09705 0.840744 4.76611C1.01847 5.43517 1.39764 6.03126 1.92553 6.47202L22.0677 23.9459L1.92553 41.4137C1.56036 41.6855 1.25454 42.0306 1.02722 42.4276C0.799899 42.8246 0.655977 43.265 0.604465 43.721C0.552953 44.1769 0.594962 44.6386 0.72786 45.0774C0.860759 45.5161 1.08168 45.9225 1.3768 46.2708C1.67192 46.6191 2.03487 46.9016 2.44292 47.1012C2.85098 47.3009 3.29535 47.413 3.74821 47.4307C4.20106 47.4484 4.65264 47.3715 5.07468 47.2043C5.49671 47.0371 5.88011 46.7834 6.20085 46.4592L29.2618 26.4785C29.6239 26.1655 29.9147 25.7771 30.1142 25.3393C30.3136 24.9015 30.4168 24.425 30.4168 23.9429C30.4168 23.4608 30.3136 22.9843 30.1142 22.5465C29.9147 22.1087 29.6239 21.7198 29.2618 21.4069L6.20085 1.40696C5.61829 0.882972 4.87108 0.585839 4.09212 0.567274Z" fill="black"/>
</svg>
