<svg width="33" height="33" viewBox="0 0 33 33" fill="none" xmlns="http://www.w3.org/2000/svg">
<g clip-path="url(#clip0_2_11)">
<path d="M16.5 0C7.40205 0 0 7.40205 0 16.5C0 25.5979 7.40205 33 16.5 33C25.5979 33 33 25.5979 33 16.5C33 7.40205 25.5979 0 16.5 0Z" fill="white"/>
<path d="M17.5034 5.35135C15.9867 5.35135 14.7534 6.58466 14.7534 8.10137C14.7534 9.61808 15.9867 10.8514 17.5034 10.8514C19.0201 10.8514 20.2534 9.61808 20.2534 8.10137C20.2534 6.58466 19.02 5.35135 17.5034 5.35135ZM17.5034 9.47635C16.7454 9.47635 16.1284 8.85934 16.1284 8.10137C16.1284 7.3434 16.7454 6.72639 17.5034 6.72639C18.2613 6.72639 18.8784 7.3434 18.8784 8.10137C18.8784 8.85934 18.2613 9.47635 17.5034 9.47635Z" fill="#1E3F3C"/>
<path d="M19.5659 12.2264H14.0659C13.6859 12.2264 13.3784 12.5339 13.3784 12.9139V15.6639C13.3784 16.0439 13.6859 16.3514 14.0659 16.3514H14.7534V26.6639C14.7534 27.044 15.0609 27.3515 15.4409 27.3515H19.5659C19.9459 27.3515 20.2534 27.044 20.2534 26.6639V12.9139C20.2534 12.5339 19.9459 12.2264 19.5659 12.2264ZM18.8783 25.9764H16.1283V15.6639C16.1283 15.2838 15.8208 14.9763 15.4408 14.9763H14.7533V13.6014H18.8783L18.8783 25.9764Z" fill="#1E3F3C"/>
</g>
<defs>
<clipPath id="clip0_2_11">
<rect width="33" height="33" fill="white"/>
</clipPath>
</defs>
</svg>
